# File created by Blade
# Date/Time:  Thu Jan 22 19:13:14 2015
# Frame Rate: 120.000 fps
#------------------------------------------------------
:FULLY-SPECIFIED
:DEGREES
2842
root 1.160979 33.217041 -2.946214 7.685288 -4.970891 2.811311
RightUpLeg -1.695605 -6.187039 2.192746
RightLeg 1.822372 -0.000000 -0.000000
RightFoot -13.428463 0.455424 1.907372
RightToeBase -7.118470 -0.000000 0.000000
LeftUpLeg -2.246718 3.226689 -2.447229
LeftLeg 5.452157 -0.000000 -0.000000
LeftFoot -13.919160 3.137678 -15.683357
LeftToeBase 3.855430 -0.000000 -0.000000
Spine -8.979582 -0.615459 -1.646194
RightShoulder -18.210795 -12.729047 -26.482546
RightArm 19.975164 24.289465 40.294379
RightForeArm -10.204851 -0.000000 8.577978
RightHand 14.060369 -0.000000 4.122236
RightHandThumb1 -24.326973 -0.000000 -32.862282
LeftShoulder -24.603502 8.611942 27.713920
LeftArm 12.401203 -31.174829 -40.952189
LeftForeArm 19.190359 0.000000 -0.781381
LeftHand -2.597912 -0.000000 -1.041466
LeftHandThumb1 -26.253704 0.000000 33.147579
Head -7.692849 4.963577 -3.012160
2843
root 1.175911 33.188194 -2.956932 7.616678 -4.811912 2.634207
RightUpLeg -1.529904 -6.063379 2.354687
RightLeg 1.600659 -0.000000 -0.000000
RightFoot -13.437004 0.103376 1.997100
RightToeBase -6.163523 -0.000000 0.000000
LeftUpLeg -2.084019 2.868757 -2.298288
LeftLeg 5.246591 -0.000000 -0.000000
LeftFoot -14.262408 3.375796 -15.513372
LeftToeBase 4.534741 -0.000000 -0.000000
Spine -8.789598 -0.658914 -1.381144
RightShoulder -18.330440 -12.665061 -26.416781
RightArm 19.972183 24.486149 40.317369
RightForeArm -9.973258 -0.000000 8.535776
RightHand 14.068237 -0.000000 3.526655
RightHandThumb1 -24.326973 -0.000000 -32.862282
LeftShoulder -24.648951 8.574907 27.605756
LeftArm 12.544114 -31.231636 -40.934784
LeftForeArm 19.199047 -0.000000 -0.778357
LeftHand -2.639465 -0.000000 -0.895718
LeftHandThumb1 -26.253704 0.000000 33.147579
Head -7.936164 4.794173 -3.159506
2844
root 1.190395 33.173554 -2.968828 7.542278 -4.677882 2.539882
RightUpLeg -1.305926 -5.252801 2.389952
RightLeg 1.275134 -0.000000 -0.000000
RightFoot -13.401064 -0.799899 2.195282
RightToeBase -5.147803 -0.000000 0.000000
LeftUpLeg -1.983073 2.542772 -2.236303
LeftLeg 5.125080 -0.000000 -0.000000
LeftFoot -14.453821 3.660037 -15.406248
LeftToeBase 4.984242 -0.000000 -0.000000
Spine -8.591900 -0.685684 -1.244570
RightShoulder -18.489179 -12.714866 -26.260636
RightArm 20.092224 24.858609 40.476222
RightForeArm -9.667404 0.000000 8.499897
RightHand 14.056445 0.000000 3.773663
RightHandThumb1 -24.326973 -0.000000 -32.862282
LeftShoulder -24.697352 8.667383 27.465876
LeftArm 12.776248 -31.303333 -40.960634
LeftForeArm 18.990565 -0.000000 -0.790371
LeftHand -2.609235 0.000000 -0.866843
LeftHandThumb1 -26.253704 0.000000 33.147579
Head -8.209761 4.626966 -3.267756
2845
root 1.212398 33.172548 -2.982988 7.512388 -4.554935 2.514711
RightUpLeg -1.280539 -4.535753 2.355299
RightLeg 1.255375 -0.000000 -0.000000
RightFoot -13.416339 -1.463120 2.332491
RightToeBase -4.773325 -0.000000 0.000000
LeftUpLeg -2.008801 2.196888 -2.248446
LeftLeg 5.133822 -0.000000 -0.000000
LeftFoot -14.511498 3.972762 -15.331629
LeftToeBase 5.089075 -0.000000 -0.000000
Spine -8.457264 -0.725408 -1.181715
RightShoulder -18.604683 -12.756775 -26.118417
RightArm 20.138338 25.054819 40.602648
RightForeArm -9.326944 -0.000000 8.452562
RightHand 14.068235 -0.000000 3.776828
RightHandThumb1 -24.326973 -0.000000 -32.862282
LeftShoulder -24.732554 8.801861 27.376391
LeftArm 12.993715 -31.230160 -41.046350
LeftForeArm 18.789644 -0.000000 -0.869985
LeftHand -2.649331 -0.000000 -0.607891
LeftHandThumb1 -26.253704 0.000000 33.147579
Head -8.458000 4.500688 -3.338556
2846
root 1.248310 33.177795 -2.995497 7.536172 -4.423598 2.564556
RightUpLeg -1.358969 -3.832296 2.231177
RightLeg 1.344598 -0.000000 -0.000000
RightFoot -13.459342 -2.093083 2.693818
RightToeBase -4.601013 -0.000000 0.000000
LeftUpLeg -1.925346 0.978105 -2.292816
LeftLeg 4.819821 -0.000000 -0.000000
LeftFoot -14.529129 4.734180 -15.830618
LeftToeBase 5.220282 -0.000000 -0.000000
Spine -8.427290 -0.791105 -1.155761
RightShoulder -18.666408 -12.839931 -26.076095
RightArm 20.212533 25.332633 40.860467
RightForeArm -9.203666 -0.000000 8.340534
RightHand 14.091613 -0.000000 3.915599
RightHandThumb1 -24.326973 -0.000000 -32.862282
LeftShoulder -24.720869 8.948582 27.329382
LeftArm 13.131905 -31.148400 -41.151697
LeftForeArm 18.605852 -0.000000 -0.974077
LeftHand -2.613887 -0.000000 -0.665083
LeftHandThumb1 -26.253704 0.000000 33.147579
Head -8.606101 4.416133 -3.459732
